Coordinates
version=1
nRows=19
nColumns=24
inDegrees=yes

Units are S.I. units (second, meters, Newtons, ...)
Angles are in degrees.

endheader
time	pelvis_tilt	pelvis_list	pelvis_rotation	pelvis_tx	pelvis_ty	pelvis_tz	hip_flexion_r	hip_adduction_r	hip_rotation_r	knee_angle_r	ankle_angle_r	subtalar_angle_r	mtp_angle_r	hip_flexion_l	hip_adduction_l	hip_rotation_l	knee_angle_l	ankle_angle_l	subtalar_angle_l	mtp_angle_l	lumbar_extension	lumbar_bending	lumbar_rotation
      4.59500000	     12.12526048	     -1.75484887	      8.73139542	      0.18677035	      0.75647323	     -0.30173853	     -4.55157017	      7.27982150	     -7.24406929	    -13.16777825	     24.28277942	      7.54560405	      0.00000000	     13.99737042	      0.82838907	      6.40483492	    -69.25445959	     18.67833879	      4.55080945	      0.00000000	    -31.72611819	      6.42876578	     -3.18584381
      4.60000000	     12.28744025	     -1.75664843	      8.21026495	      0.19378733	      0.75698306	     -0.30123783	     -5.64067664	      7.37407655	     -6.81958049	    -12.52441498	     24.49551236	      7.83942885	      0.00000000	     14.59633864	      0.85649978	      5.83546468	    -68.25817045	     18.75291551	      3.92450960	      0.00000000	    -31.92966372	      6.28187020	     -2.77344295
      4.60500000	     12.43764908	     -1.81648262	      7.70220713	      0.20080505	      0.75733981	     -0.30074648	     -6.69390872	      7.50344139	     -6.48026954	    -11.91539468	     24.69221486	      8.22776485	      0.00000000	     15.19291491	      0.79304737	      5.25582265	    -67.19902142	     18.84450997	      3.25892478	      0.00000000	    -32.11428354	      6.19893414	     -2.35639760
      4.61000000	     12.59124856	     -1.89312854	      7.16468368	      0.20782141	      0.75759340	     -0.30025830	     -7.73767192	      7.62043754	     -6.16896751	    -11.33683501	     24.91843479	      8.69157409	      0.00000000	     15.74504251	      0.69361554	      4.66299343	    -66.05154268	     18.89652076	      2.58232867	      0.00000000	    -32.31154727	      6.12351968	     -1.89443700
      4.61500000	     12.74900271	     -1.98670122	      6.61377701	      0.21484169	      0.75774464	     -0.29977312	     -8.77519491	      7.72944755	     -5.88344709	    -10.78597279	     25.17094160	      9.22373588	      0.00000000	     16.25236473	      0.55745627	      4.06662044	    -64.81709817	     18.92464100	      1.91561986	      0.00000000	    -32.51783207	      6.05828979	     -1.39770279
      4.62000000	     12.90733871	     -2.10682633	      6.04300442	      0.22185848	      0.75779046	     -0.29928750	     -9.79854486	      7.83823717	     -5.62166746	    -10.26781802	     25.44270865	      9.81207908	      0.00000000	     16.71997143	      0.37444907	      3.46192069	    -63.49979684	     18.93897393	      1.26703099	      0.00000000	    -32.73165457	      6.01213366	     -0.87013965
      4.62500000	     13.06963034	     -2.24440664	      5.46233110	      0.22887948	      0.75774126	     -0.29879444	    -10.81543972	      7.94055265	     -5.38230501	     -9.77900496	     25.73368094	     10.45459535	      0.00000000	     17.13885841	      0.15527928	      2.85727968	    -62.09399814	     18.95297217	      0.65460503	      0.00000000	    -32.95437801	      5.97365461	     -0.32828485
      4.63000000	     13.26735332	     -2.36381443	      4.89149855	      0.23593577	      0.75764476	     -0.29833352	    -11.87167028	      7.99889105	     -5.24638743	     -9.30730856	     26.03627911	     11.22014262	      0.00000000	     17.45621079	     -0.05275649	      2.26387066	    -60.57696744	     19.01176377	      0.07357802	      0.00000000	    -33.21444786	      5.92371765	      0.17576122
      4.63500000	     13.41083441	     -2.54644056	      4.28838857	      0.24295241	      0.75738156	     -0.29784677	    -12.84226605	      8.09609926	     -5.01160415	     -8.88377841	     26.38232679	     11.93064073	      0.00000000	     17.81174508	     -0.34441798	      1.65898381	    -59.00998988	     19.01715907	     -0.41568922	      0.00000000	    -33.42694131	      5.91941452	      0.74342801
      4.64000000	     13.58022888	     -2.72027627	      3.69921516	      0.25000665	      0.75706654	     -0.29737946	    -13.84232269	      8.16408004	     -4.85990005	     -8.47362876	     26.72437860	     12.71425625	      0.00000000	     18.07700714	     -0.62810979	      1.08150414	    -57.33865167	     19.07374446	     -0.84909256	      0.00000000	    -33.66412651	      5.90491020	      1.28624804
      4.64500000	     13.71863577	     -2.93894239	      3.10792108	      0.25703243	      0.75661957	     -0.29693112	    -14.79412838	      8.25671728	     -4.65972623	     -8.09266659	     27.09573720	     13.47465125	      0.00000000	     18.34695062	     -0.95578744	      0.54336338	    -55.61207482	     19.09237809	     -1.16622525	      0.00000000	    -33.87724004	      5.93462069	      1.88072613
      4.65000000	     13.86427509	     -3.15669965	      2.52443340	      0.26408699	      0.75610484	     -0.29650303	    -15.75340832	      8.32788028	     -4.50096152	     -7.72621547	     27.46630146	     14.27191722	      0.00000000	     18.55147491	     -1.28214937	      0.02539514	    -53.79242004	     19.15845884	     -1.40221487	      0.00000000	    -34.09647142	      5.96661612	      2.43999793
      4.65500000	     13.99366416	     -3.39426110	      1.95917912	      0.27114866	      0.75548560	     -0.29608989	    -16.68766026	      8.40742649	     -4.36018060	     -7.38199737	     27.84630098	     15.04948012	      0.00000000	     18.73321941	     -1.62505945	     -0.45562302	    -51.90814516	     19.22686485	     -1.52515498	      0.00000000	    -34.29843180	      6.01700867	      3.00954116
      4.66000000	     14.13739961	     -3.62211172	      1.42791930	      0.27825619	      0.75480873	     -0.29573124	    -17.64582324	      8.46395905	     -4.30570207	     -7.03287487	     28.20904807	     15.88739860	      0.00000000	     18.84260404	     -1.93929187	     -0.88021221	    -49.93693552	     19.34199152	     -1.56595660	      0.00000000	    -34.50931127	      6.07425561	      3.53276698
      4.66500000	     14.21568884	     -3.90491552	      0.87365394	      0.28531846	      0.75397760	     -0.29534909	    -18.50908820	      8.56031794	     -4.11257276	     -6.73619876	     28.61497036	     16.59238023	      0.00000000	     18.99935675	     -2.31742892	     -1.28185494	    -47.93451072	     19.40932762	     -1.43818473	      0.00000000	    -34.66207064	      6.17417236	      4.10657212
      4.67000000	     14.30071026	     -4.18330492	      0.35361512	      0.29241793	      0.75308567	     -0.29500738	    -19.38698351	      8.64647814	     -3.96611877	     -6.43751919	     29.00190211	     17.30157903	      0.00000000	     19.09875690	     -2.67608516	     -1.63339967	    -45.86275828	     19.51529892	     -1.21186447	      0.00000000	    -34.81676852	      6.28341730	      4.64702198
      4.67500000	     14.34030938	     -4.50674665	     -0.15109989	      0.29951765	      0.75207188	     -0.29469392	    -20.20843433	      8.77110010	     -3.82156125	     -6.15974327	     29.34538315	     17.93220485	      0.00000000	     19.21835071	     -3.06927431	     -1.92525012	    -43.75904140	     19.62397486	     -0.91008895	      0.00000000	    -34.92939520	      6.44371923	      5.23492998
      4.68000000	     14.38820479	     -4.80106729	     -0.64134685	      0.30666029	      0.75100585	     -0.29438498	    -21.04475198	      8.85787814	     -3.67131238	     -5.88734018	     29.73489698	     18.57579970	      0.00000000	     19.27482185	     -3.42947807	     -2.19722516	    -41.58979524	     19.75285471	     -0.45058356	      0.00000000	    -35.04331877	      6.57830128	      5.76301866
      4.68500000	     14.42133089	     -5.10047730	     -1.09631191	      0.31381892	      0.74985735	     -0.29411409	    -21.86441545	      8.95015696	     -3.54363271	     -5.62415185	     30.12338335	     19.18432846	      0.00000000	     19.31487442	     -3.77912596	     -2.40512636	    -39.38624413	     19.87282533	      0.10246402	      0.00000000	    -35.14108841	      6.73387350	      6.26902412
